HIERARCHY
ROOT Hips
{
	OFFSET 0.000000 0.000000 0.000000
	CHANNELS 6 Xposition Yposition Zposition Xrotation Yrotation Zrotation
	JOINT LeftUpLeg_virtual
	{
		OFFSET 0.000000 0.000000 0.000000
		CHANNELS 3 Xrotation Yrotation Zrotation
		JOINT LeftUpLeg
		{
			OFFSET 15.427100 -6.655098 0.678600
			CHANNELS 3 Xrotation Yrotation Zrotation
			JOINT LeftLeg
			{
				OFFSET 4.081073 -39.591068 13.024000
				CHANNELS 3 Xrotation Yrotation Zrotation
				JOINT LeftFoot
				{
					OFFSET -4.081074 -37.707932 -15.979700
					CHANNELS 3 Xrotation Yrotation Zrotation
					JOINT LeftToeBase
					{
						OFFSET 5.346399 -15.068900 20.645000
						CHANNELS 3 Xrotation Yrotation Zrotation
						JOINT LeftToe_End
						{
							OFFSET 2.754700 0.931300 11.300900
							CHANNELS 3 Xrotation Yrotation Zrotation
							End Site
							{
								OFFSET 0 0 0
							}
						}
					}
				}
			}
		}
	}
	JOINT RightUpLeg_virtual
	{
		OFFSET 0.000000 0.000000 0.000000
		CHANNELS 3 Xrotation Yrotation Zrotation
		JOINT RightUpLeg
		{
			OFFSET -15.569500 -6.655098 0.678600
			CHANNELS 3 Xrotation Yrotation Zrotation
			JOINT RightLeg
			{
				OFFSET -4.081825 -39.591045 13.023800
				CHANNELS 3 Xrotation Yrotation Zrotation
				JOINT RightFoot
				{
					OFFSET 4.081824 -37.707954 -15.979600
					CHANNELS 3 Xrotation Yrotation Zrotation
					JOINT RightToeBase
					{
						OFFSET -5.346400 -15.068900 20.645000
						CHANNELS 3 Xrotation Yrotation Zrotation
						JOINT RightToe_End
						{
							OFFSET -2.754700 0.931300 11.300900
							CHANNELS 3 Xrotation Yrotation Zrotation
							End Site
							{
								OFFSET 0 0 0
							}
						}
					}
				}
			}
		}
	}
	JOINT Spine_virtual
	{
		OFFSET 0.000000 0.000000 0.000000
		CHANNELS 3 Xrotation Yrotation Zrotation
		JOINT Spine
		{
			OFFSET -0.279200 12.230698 -2.892100
			CHANNELS 3 Xrotation Yrotation Zrotation
			JOINT Spine1
			{
				OFFSET -0.232667 10.192268 -1.242267
				CHANNELS 3 Xrotation Yrotation Zrotation
				JOINT Spine1_split
				{
					OFFSET -0.232667 10.192268 -1.242267
					CHANNELS 3 Xrotation Yrotation Zrotation
					JOINT Spine2
					{
						OFFSET -0.232667 10.192268 -1.242267
						CHANNELS 3 Xrotation Yrotation Zrotation
						JOINT Neck_virtual
						{
							OFFSET 0.000000 0.000000 0.000000
							CHANNELS 3 Xrotation Yrotation Zrotation
							JOINT Neck
							{
								OFFSET -0.418800 17.814194 8.416900
								CHANNELS 3 Xrotation Yrotation Zrotation
								JOINT Head
								{
									OFFSET 0.000000 7.031097 3.806800
									CHANNELS 3 Xrotation Yrotation Zrotation
									JOINT HeadTop_End
									{
										OFFSET 0.000000 24.646606 12.978600
										CHANNELS 3 Xrotation Yrotation Zrotation
										End Site
										{
											OFFSET 0 0 0
										}
									}
								}
							}
						}
						JOINT LeftShoulder_virtual
						{
							OFFSET 0.000000 0.000000 0.000000
							CHANNELS 3 Xrotation Yrotation Zrotation
							JOINT LeftShoulder
							{
								OFFSET 8.476499 7.247704 -3.868750
								CHANNELS 3 Xrotation Yrotation Zrotation
								JOINT LeftShoulder_split
								{
									OFFSET 8.476499 7.247704 -3.868750
									CHANNELS 3 Xrotation Yrotation Zrotation
									JOINT LeftArm
									{
										OFFSET 9.308998 -2.777710 0.208600
										CHANNELS 3 Xrotation Yrotation Zrotation
										JOINT LeftForeArm
										{
											OFFSET 29.972298 0.000000 0.000000
											CHANNELS 3 Xrotation Yrotation Zrotation
											JOINT LeftHand
											{
												OFFSET 26.026505 0.000000 0.000000
												CHANNELS 3 Xrotation Yrotation Zrotation
												End Site
												{
													OFFSET 0 0 0
												}
											}
										}
									}
								}
							}
						}
						JOINT RightShoulder_virtual
						{
							OFFSET 0.000000 0.000000 0.000000
							CHANNELS 3 Xrotation Yrotation Zrotation
							JOINT RightShoulder
							{
								OFFSET -7.570500 7.247704 -3.868750
								CHANNELS 3 Xrotation Yrotation Zrotation
								JOINT RightShoulder_split
								{
									OFFSET -7.570500 7.247704 -3.868750
									CHANNELS 3 Xrotation Yrotation Zrotation
									JOINT RightArm
									{
										OFFSET -9.308998 -2.777710 0.208500
										CHANNELS 3 Xrotation Yrotation Zrotation
										JOINT RightForeArm
										{
											OFFSET -29.972300 0.000000 0.000000
											CHANNELS 3 Xrotation Yrotation Zrotation
											JOINT RightHand
											{
												OFFSET -26.026505 0.000000 0.000000
												CHANNELS 3 Xrotation Yrotation Zrotation
												End Site
												{
													OFFSET 0 0 0
												}
											}
										}
									}
								}
							}
						}
					}
				}
			}
		}
	}
}
MOTION
Frames: 7
Frame Time: 0.03333333
2.229179 80.892082 -3.142010 0.000000 0.000000 0.000000 7.767010 -66.948237 9.267118 -29.944905 16.357499 26.534872 31.027804 -7.278803 0.638704 -9.626200 -3.982507 -16.896698 -0.292601 -0.375932 -0.283299 0.000000 0.000000 0.000000 5.784452 -66.361080 8.206255 -26.397575 -22.460119 -36.836597 30.578815 8.021343 -2.645771 -14.804088 -0.679199 22.094936 5.959406 0.610762 0.667807 0.000000 0.000000 0.000000 7.502544 -64.700374 8.911543 12.257594 -0.511671 -4.690506 7.351009 1.731422 -0.986421 0.551622 3.849846 -0.706073 0.000000 0.000000 0.000000 9.737973 1.784998 -2.103038 7.132992 5.041200 4.636907 -24.663968 52.842698 18.812113 0.000000 0.000000 0.000000 9.034615 1.115307 -1.065135 5.504342 -1.556722 -12.549088 -2.846061 -4.664895 2.652804 -34.026855 13.777035 -27.683757 6.721021 -53.836101 4.168466 0.000000 0.000000 0.000000 7.831509 1.703264 -0.589529 -7.962876 7.766343 14.959598 3.038142 0.592012 -1.667562 17.224031 -6.555364 33.136738 -19.784404 39.663995 20.107095 0.000000 0.000000 0.000000 
2.008027 81.143280 -2.734779 0.000000 0.000000 0.000000 7.362897 -66.865052 8.625083 -30.144965 16.081810 26.902640 31.455702 -7.011314 0.744040 -9.611780 -4.055455 -17.116949 -0.302592 -0.368753 -0.278599 0.000000 0.000000 0.000000 5.721670 -66.695677 7.884654 -25.493755 -22.110253 -36.189132 29.422908 8.080556 -2.608469 -14.137360 -0.306767 22.711620 4.403931 0.581578 0.711763 0.000000 0.000000 0.000000 7.296119 -64.954853 8.465624 12.283772 -0.527793 -4.331638 7.370804 1.743903 -1.440400 0.080958 3.231314 -0.567361 0.000000 0.000000 0.000000 8.794819 1.806330 -2.292882 7.526061 5.039804 4.478089 -24.317106 54.048298 18.000002 0.000000 0.000000 0.000000 8.696068 1.149641 -1.538851 5.421777 -2.108429 -12.835490 -3.153031 -2.892230 2.205422 -33.099073 16.230437 -27.075259 7.409300 -51.572484 4.665391 0.000000 0.000000 0.000000 7.408109 1.877167 -0.786526 -9.200621 6.410437 15.062555 3.787810 -0.258941 -0.377312 15.118564 -5.587910 31.539409 -18.644152 39.050732 19.795977 0.000000 0.000000 0.000000 
1.688718 81.451553 -2.246498 0.000000 0.000000 0.000000 6.235331 -67.367051 7.170701 -30.209100 15.652164 27.599167 32.149724 -6.418561 0.835272 -9.630853 -3.922524 -17.192571 -0.425868 -0.337354 -0.250749 0.000000 0.000000 0.000000 5.085885 -67.509877 6.837469 -24.242561 -21.752006 -35.513613 27.972329 8.331077 -2.353723 -13.463850 0.220361 23.167322 3.368766 0.576533 0.810042 0.000000 0.000000 0.000000 6.499972 -65.388638 7.317024 12.022902 -0.560197 -3.876056 6.755081 1.438703 -1.549614 0.258150 2.827377 -0.257633 0.000000 0.000000 0.000000 7.457303 1.372372 -2.031739 7.584505 4.986794 3.649386 -22.057753 56.311433 14.625277 0.000000 0.000000 0.000000 7.610148 0.824102 -1.626789 4.955852 -3.400848 -14.420724 -4.016496 -1.814998 2.801188 -28.172751 20.313522 -26.467367 6.617706 -49.006966 4.169179 0.000000 0.000000 0.000000 6.463790 1.625764 -0.690898 -11.311009 3.892639 14.815635 4.442967 -1.081914 0.182572 13.335391 -10.009006 32.720366 -17.543877 41.082925 19.522182 0.000000 0.000000 0.000000 
1.327273 81.603752 -1.859600 0.000000 0.000000 0.000000 4.398433 -68.178600 5.017450 -30.241909 15.131082 28.438541 33.166463 -5.594197 0.940656 -9.780555 -3.674425 -17.108562 -0.552775 -0.286418 -0.228956 0.000000 0.000000 0.000000 3.650420 -68.355679 4.980826 -23.010745 -21.485190 -35.038047 26.824106 8.624957 -1.931620 -13.010896 0.677332 23.450592 2.914595 0.599076 0.896588 0.000000 0.000000 0.000000 5.262772 -65.858829 5.644973 11.501116 -0.633766 -3.398829 5.636827 0.922454 -1.347110 0.343412 1.953591 0.224983 0.000000 0.000000 0.000000 5.958476 0.605012 -1.428888 7.207866 4.960403 2.377751 -17.312696 58.899474 8.661038 0.000000 0.000000 0.000000 6.099883 0.249010 -1.370502 4.184929 -4.975693 -16.914607 -4.601857 -1.507480 4.334825 -20.428510 24.716310 -26.293249 5.225055 -47.877683 3.397618 0.000000 0.000000 0.000000 5.219065 1.053939 -0.345955 -14.057047 0.887467 13.426650 4.141940 -0.968156 -0.181342 12.381740 -19.696109 36.842655 -16.933919 47.019873 19.367666 0.000000 0.000000 0.000000 
0.999800 81.439133 -1.452415 0.000000 0.000000 0.000000 2.186612 -68.741817 2.553811 -30.382628 14.507957 29.221680 34.547636 -4.709745 1.076795 -10.051602 -3.556953 -16.989522 -0.634701 -0.231410 -0.185896 0.000000 0.000000 0.000000 1.770113 -68.654152 2.724313 -22.054184 -21.419449 -34.883521 26.518933 8.845421 -1.516560 -13.037634 0.764876 23.636348 2.255350 0.639712 0.889837 0.000000 0.000000 0.000000 3.890370 -66.204088 3.768919 10.726602 -0.706139 -2.960556 4.319525 0.341797 -0.906327 0.586455 0.982458 0.201514 0.000000 0.000000 0.000000 4.565075 -0.285494 -0.673015 6.259981 5.012682 0.855212 -10.153506 60.823060 0.584235 0.000000 0.000000 0.000000 4.406902 -0.365120 -0.897958 3.200190 -6.383446 -19.459141 -4.236659 -1.851840 6.381240 -11.506877 28.398641 -26.922396 4.150442 -48.513963 2.909046 0.000000 0.000000 0.000000 3.931760 0.356619 0.063168 -17.276385 -2.163248 10.170039 2.683800 0.015878 -0.393045 11.906927 -33.748456 43.117956 -18.710735 58.823775 21.075770 0.000000 0.000000 0.000000 
0.770438 80.843842 -1.158138 0.000000 0.000000 0.000000 0.378138 -68.588541 0.560604 -30.830200 13.664797 29.752181 36.284400 -3.919451 1.272251 -10.291352 -3.830531 -16.947815 -0.757423 -0.185979 -0.049012 0.000000 0.000000 0.000000 0.300318 -68.022639 0.946154 -21.436573 -21.537285 -35.049696 27.182252 8.990245 -1.246283 -13.762025 0.342794 23.641988 1.311437 0.690557 0.767496 0.000000 0.000000 0.000000 2.818588 -65.950278 2.279344 9.775705 -0.645120 -2.599037 3.050400 -0.126292 -0.443662 0.879940 0.478478 -0.210173 0.000000 0.000000 0.000000 3.513167 -1.009882 -0.005801 4.959563 4.965287 -0.706094 -1.739442 61.482385 -8.067062 0.000000 0.000000 0.000000 2.888234 -0.798423 -0.364984 2.248126 -7.175442 -21.209940 -3.587915 -1.964838 7.703209 -3.346182 29.115119 -27.963380 3.690410 -50.799993 2.829284 0.000000 0.000000 0.000000 2.848279 -0.182165 0.341198 -20.872746 -4.614983 4.144533 0.280655 1.330195 0.752125 10.648223 -49.426657 49.581795 -36.106644 76.887166 37.738732 0.000000 0.000000 0.000000 
0.671359 79.914734 -1.079338 0.000000 0.000000 0.000000 -0.555560 -67.569777 -0.463412 -31.632699 12.513668 29.946695 38.121348 -3.332572 1.524007 -10.346812 -4.605773 -17.123474 -0.923629 -0.153749 0.231055 0.000000 0.000000 0.000000 -0.421871 -66.539088 0.073202 -21.406603 -21.903320 -35.624259 28.909015 9.052167 -1.101663 -15.144220 -0.586939 23.214739 1.081706 0.758297 0.610945 0.000000 0.000000 0.000000 2.306887 -65.004229 1.508768 8.739932 -0.314697 -2.344617 2.051334 -0.328751 -0.135826 0.916206 0.505040 -0.457738 0.000000 0.000000 0.000000 2.939577 -1.355980 0.394681 3.483128 4.911719 -1.885305 5.816810 60.866302 -15.011765 0.000000 0.000000 0.000000 1.697092 -0.843726 -0.007211 1.465424 -7.167634 -21.666876 -2.970706 -1.708167 7.863604 2.265999 25.579946 -28.022145 4.177364 -53.684228 3.339501 0.000000 0.000000 0.000000 2.131850 -0.437145 0.292014 -24.491296 -5.574229 -4.435769 -2.516003 1.105079 3.496497 4.498640 -64.147327 51.315857 -155.479462 75.617134 156.156907 0.000000 0.000000 0.000000 
